<?xml version="1.0" encoding="UTF-8"?>
<svg xmlns="http://www.w3.org/2000/svg" xmlns:xlink="http://www.w3.org/1999/xlink" width="48px" height="48px" viewBox="0 0 48 48" version="1.1">
<g id="surface1">
<path style=" stroke:none;fill-rule:nonzero;fill:rgb(2.745098%,2.745098%,2.745098%);fill-opacity:1;" d="M 0 0 C 15.839844 0 31.679688 0 48 0 C 48 15.839844 48 31.679688 48 48 C 32.160156 48 16.320312 48 0 48 C 0 32.160156 0 16.320312 0 0 Z M 0 0 "/>
<path style=" stroke:none;fill-rule:nonzero;fill:rgb(2.745098%,2.745098%,2.745098%);fill-opacity:1;" d="M 24.234375 6.46875 C 24.402344 6.546875 24.5625 6.636719 24.722656 6.730469 C 24.769531 6.757812 24.816406 6.785156 24.863281 6.816406 C 25.308594 7.074219 25.75 7.339844 26.191406 7.605469 C 26.5625 7.828125 26.9375 8.046875 27.316406 8.265625 C 27.523438 8.386719 27.730469 8.507812 27.9375 8.628906 C 27.96875 8.648438 27.996094 8.664062 28.023438 8.679688 C 28.082031 8.714844 28.140625 8.75 28.195312 8.78125 C 28.660156 9.054688 29.125 9.324219 29.589844 9.589844 C 30.039062 9.847656 30.484375 10.113281 30.925781 10.378906 C 31.394531 10.664062 31.871094 10.941406 32.34375 11.214844 C 32.484375 11.296875 32.625 11.378906 32.761719 11.460938 C 33.246094 11.742188 33.730469 12.023438 34.21875 12.304688 C 35.058594 12.789062 35.898438 13.277344 36.730469 13.777344 C 37.011719 13.941406 37.292969 14.105469 37.574219 14.265625 C 37.605469 14.285156 37.636719 14.300781 37.664062 14.316406 C 37.808594 14.398438 37.949219 14.480469 38.089844 14.558594 C 38.84375 14.984375 38.84375 14.984375 39 15.140625 C 39.003906 15.230469 39.007812 15.324219 39.007812 15.414062 C 39.007812 15.476562 39.007812 15.535156 39.007812 15.597656 C 39.007812 15.664062 39.007812 15.730469 39.007812 15.800781 C 39.007812 15.871094 39.007812 15.941406 39.007812 16.011719 C 39.007812 16.207031 39.007812 16.40625 39.007812 16.601562 C 39.007812 16.8125 39.007812 17.023438 39.007812 17.234375 C 39.011719 17.746094 39.011719 18.253906 39.011719 18.765625 C 39.011719 19.007812 39.011719 19.246094 39.011719 19.484375 C 39.011719 20.285156 39.011719 21.082031 39.011719 21.878906 C 39.015625 22.085938 39.015625 22.292969 39.015625 22.5 C 39.015625 22.550781 39.015625 22.605469 39.015625 22.65625 C 39.015625 23.492188 39.015625 24.328125 39.015625 25.160156 C 39.019531 26.015625 39.019531 26.875 39.019531 27.730469 C 39.019531 28.210938 39.019531 28.691406 39.023438 29.171875 C 39.023438 29.582031 39.023438 29.992188 39.023438 30.402344 C 39.023438 30.609375 39.023438 30.820312 39.023438 31.027344 C 39.023438 31.21875 39.023438 31.410156 39.023438 31.601562 C 39.023438 31.671875 39.023438 31.742188 39.023438 31.808594 C 39.023438 31.902344 39.023438 32 39.023438 32.09375 C 39.023438 32.144531 39.023438 32.199219 39.023438 32.25 C 38.996094 32.421875 38.929688 32.5 38.8125 32.625 C 38.722656 32.6875 38.722656 32.6875 38.628906 32.734375 C 38.59375 32.753906 38.558594 32.773438 38.523438 32.792969 C 38.484375 32.8125 38.445312 32.832031 38.40625 32.855469 C 38.027344 33.054688 37.664062 33.265625 37.296875 33.488281 C 36.925781 33.710938 36.550781 33.929688 36.171875 34.144531 C 35.773438 34.367188 35.378906 34.601562 34.988281 34.839844 C 34.539062 35.113281 34.089844 35.382812 33.636719 35.648438 C 33.59375 35.671875 33.59375 35.671875 33.550781 35.699219 C 33.410156 35.78125 33.265625 35.863281 33.125 35.945312 C 32.863281 36.097656 32.601562 36.253906 32.339844 36.40625 C 32.28125 36.441406 32.222656 36.472656 32.167969 36.507812 C 31.761719 36.746094 31.359375 36.984375 30.957031 37.21875 C 30.570312 37.449219 30.183594 37.675781 29.792969 37.902344 C 29.421875 38.121094 29.046875 38.34375 28.671875 38.5625 C 27.878906 39.03125 27.082031 39.496094 26.285156 39.957031 C 25.980469 40.128906 25.675781 40.308594 25.375 40.484375 C 25.191406 40.59375 25.007812 40.699219 24.820312 40.804688 C 24.746094 40.847656 24.675781 40.894531 24.601562 40.9375 C 24.515625 40.984375 24.429688 41.035156 24.347656 41.082031 C 24.304688 41.109375 24.257812 41.132812 24.214844 41.160156 C 24.027344 41.226562 23.871094 41.183594 23.691406 41.101562 C 23.652344 41.078125 23.613281 41.058594 23.574219 41.035156 C 23.53125 41.007812 23.484375 40.984375 23.441406 40.957031 C 23.371094 40.917969 23.371094 40.917969 23.300781 40.875 C 23.25 40.847656 23.203125 40.820312 23.152344 40.789062 C 22.875 40.628906 22.597656 40.464844 22.320312 40.300781 C 22.011719 40.113281 21.699219 39.929688 21.386719 39.746094 C 20.933594 39.480469 20.480469 39.214844 20.03125 38.949219 C 19.566406 38.671875 19.097656 38.398438 18.628906 38.128906 C 18.269531 37.921875 17.910156 37.714844 17.554688 37.5 C 17.203125 37.292969 16.847656 37.082031 16.492188 36.875 C 16.046875 36.613281 15.601562 36.351562 15.15625 36.089844 C 14.644531 35.785156 14.128906 35.484375 13.609375 35.1875 C 12.921875 34.789062 12.234375 34.386719 11.550781 33.984375 C 11.265625 33.8125 10.976562 33.648438 10.6875 33.480469 C 10.484375 33.363281 10.28125 33.246094 10.074219 33.125 C 9.988281 33.074219 9.902344 33.027344 9.8125 32.976562 C 9.707031 32.914062 9.601562 32.855469 9.496094 32.792969 C 9.464844 32.777344 9.433594 32.757812 9.402344 32.742188 C 9.222656 32.632812 9.144531 32.523438 9.074219 32.324219 C 9.015625 32.058594 9.027344 31.785156 9.027344 31.515625 C 9.027344 31.445312 9.027344 31.375 9.027344 31.304688 C 9.027344 31.113281 9.027344 30.921875 9.027344 30.726562 C 9.027344 30.519531 9.027344 30.3125 9.027344 30.105469 C 9.027344 29.699219 9.027344 29.292969 9.027344 28.886719 C 9.027344 28.558594 9.027344 28.226562 9.027344 27.898438 C 9.027344 27.851562 9.027344 27.804688 9.027344 27.753906 C 9.027344 27.660156 9.027344 27.5625 9.027344 27.46875 C 9.023438 26.574219 9.023438 25.679688 9.027344 24.785156 C 9.027344 23.964844 9.027344 23.148438 9.023438 22.328125 C 9.023438 21.488281 9.023438 20.648438 9.023438 19.804688 C 9.023438 19.335938 9.023438 18.863281 9.023438 18.390625 C 9.023438 17.988281 9.023438 17.585938 9.023438 17.183594 C 9.023438 16.980469 9.023438 16.777344 9.023438 16.570312 C 9.023438 16.382812 9.023438 16.195312 9.023438 16.007812 C 9.023438 15.9375 9.023438 15.871094 9.023438 15.804688 C 9.023438 15.710938 9.023438 15.621094 9.023438 15.527344 C 9.023438 15.476562 9.023438 15.425781 9.023438 15.371094 C 9.050781 15.199219 9.117188 15.125 9.234375 15 C 9.359375 14.910156 9.359375 14.910156 9.507812 14.828125 C 9.535156 14.8125 9.5625 14.796875 9.585938 14.78125 C 9.675781 14.730469 9.761719 14.679688 9.847656 14.628906 C 9.910156 14.597656 9.972656 14.558594 10.03125 14.523438 C 10.191406 14.433594 10.347656 14.34375 10.503906 14.253906 C 10.640625 14.175781 10.777344 14.097656 10.914062 14.015625 C 11.117188 13.902344 11.316406 13.785156 11.519531 13.667969 C 11.804688 13.503906 12.089844 13.339844 12.375 13.171875 C 13.019531 12.796875 13.664062 12.421875 14.3125 12.050781 C 14.996094 11.65625 15.679688 11.261719 16.359375 10.863281 C 16.59375 10.726562 16.828125 10.589844 17.0625 10.453125 C 17.132812 10.414062 17.132812 10.414062 17.203125 10.371094 C 17.4375 10.234375 17.671875 10.097656 17.910156 9.960938 C 18.40625 9.671875 18.898438 9.378906 19.394531 9.089844 C 19.699219 8.90625 20.007812 8.726562 20.316406 8.550781 C 21.285156 7.984375 22.246094 7.410156 23.207031 6.832031 C 23.296875 6.777344 23.378906 6.726562 23.464844 6.675781 C 23.535156 6.632812 23.605469 6.589844 23.671875 6.546875 C 23.878906 6.414062 24 6.398438 24.234375 6.46875 Z M 24.234375 6.46875 "/>
<path style=" stroke:none;fill-rule:nonzero;fill:rgb(2.745098%,2.745098%,2.745098%);fill-opacity:1;" d="M 24.046875 12.75 C 24.164062 12.855469 24.226562 12.953125 24.289062 13.09375 C 24.308594 13.136719 24.328125 13.175781 24.351562 13.21875 C 24.378906 13.285156 24.378906 13.285156 24.414062 13.355469 C 24.460938 13.453125 24.503906 13.550781 24.550781 13.652344 C 24.578125 13.703125 24.601562 13.753906 24.625 13.808594 C 24.835938 14.25 25.058594 14.6875 25.277344 15.121094 C 25.347656 15.265625 25.417969 15.40625 25.492188 15.550781 C 25.8125 16.199219 26.144531 16.84375 26.484375 17.484375 C 26.53125 17.570312 26.574219 17.65625 26.621094 17.738281 C 26.636719 17.773438 26.65625 17.808594 26.671875 17.839844 C 26.917969 18.308594 27.15625 18.777344 27.390625 19.25 C 27.65625 19.792969 27.933594 20.332031 28.226562 20.863281 C 28.441406 21.257812 28.648438 21.65625 28.851562 22.054688 C 29.101562 22.542969 29.355469 23.027344 29.621094 23.503906 C 29.789062 23.8125 29.949219 24.128906 30.105469 24.445312 C 30.265625 24.773438 30.441406 25.09375 30.617188 25.414062 C 30.816406 25.777344 31.007812 26.140625 31.195312 26.507812 C 31.410156 26.925781 31.625 27.339844 31.851562 27.75 C 31.875 27.792969 31.898438 27.832031 31.921875 27.875 C 32.019531 28.054688 32.117188 28.234375 32.21875 28.414062 C 32.234375 28.441406 32.25 28.472656 32.265625 28.5 C 32.308594 28.574219 32.347656 28.648438 32.390625 28.722656 C 32.40625 28.757812 32.421875 28.792969 32.4375 28.828125 C 32.421875 28.859375 32.40625 28.890625 32.390625 28.921875 C 32.363281 28.90625 32.339844 28.890625 32.3125 28.875 C 31.597656 28.4375 30.882812 28.003906 30.167969 27.570312 C 29.949219 27.4375 29.726562 27.304688 29.507812 27.167969 C 29.398438 27.101562 29.289062 27.039062 29.179688 26.972656 C 28.933594 26.820312 28.683594 26.671875 28.4375 26.519531 C 27.738281 26.09375 27.039062 25.671875 26.335938 25.25 C 26.210938 25.175781 26.085938 25.101562 25.957031 25.023438 C 25.539062 24.773438 25.117188 24.519531 24.699219 24.273438 C 24.652344 24.246094 24.609375 24.21875 24.5625 24.191406 C 24.519531 24.167969 24.480469 24.144531 24.4375 24.117188 C 24.398438 24.097656 24.363281 24.074219 24.324219 24.050781 C 24.117188 23.929688 23.949219 23.945312 23.71875 24 C 23.542969 24.078125 23.378906 24.171875 23.210938 24.273438 C 23.164062 24.300781 23.117188 24.328125 23.066406 24.355469 C 22.925781 24.441406 22.78125 24.523438 22.640625 24.609375 C 22.601562 24.632812 22.5625 24.65625 22.523438 24.679688 C 22.332031 24.792969 22.148438 24.90625 21.960938 25.019531 C 21.683594 25.183594 21.410156 25.34375 21.132812 25.503906 C 20.648438 25.789062 20.167969 26.074219 19.6875 26.367188 C 19.242188 26.640625 18.792969 26.90625 18.34375 27.167969 C 17.144531 27.867188 17.144531 27.867188 15.964844 28.601562 C 15.761719 28.734375 15.761719 28.734375 15.65625 28.734375 C 15.71875 28.566406 15.796875 28.410156 15.882812 28.25 C 15.90625 28.203125 15.933594 28.152344 15.960938 28.101562 C 15.988281 28.050781 16.015625 28 16.046875 27.945312 C 16.074219 27.890625 16.105469 27.835938 16.136719 27.78125 C 16.273438 27.523438 16.414062 27.261719 16.558594 27.003906 C 16.867188 26.4375 17.167969 25.863281 17.460938 25.289062 C 17.707031 24.808594 17.960938 24.332031 18.214844 23.855469 C 18.441406 23.445312 18.660156 23.03125 18.878906 22.617188 C 18.894531 22.582031 18.914062 22.550781 18.933594 22.515625 C 19.003906 22.378906 19.078125 22.242188 19.148438 22.105469 C 19.277344 21.867188 19.40625 21.625 19.53125 21.382812 C 19.875 20.734375 20.214844 20.089844 20.554688 19.4375 C 20.707031 19.136719 20.867188 18.839844 21.03125 18.542969 C 21.28125 18.089844 21.519531 17.632812 21.753906 17.171875 C 21.773438 17.132812 21.792969 17.097656 21.8125 17.0625 C 21.882812 16.921875 21.957031 16.78125 22.027344 16.640625 C 22.273438 16.164062 22.523438 15.6875 22.773438 15.21875 C 22.859375 15.058594 22.945312 14.898438 23.03125 14.738281 C 23.054688 14.691406 23.054688 14.691406 23.082031 14.640625 C 23.414062 14.015625 23.734375 13.386719 24.046875 12.75 Z M 24.046875 12.75 "/>
<path style=" stroke:none;fill-rule:nonzero;fill:rgb(98.039216%,98.039216%,98.039216%);fill-opacity:1;" d="M 24.234375 6.46875 C 24.402344 6.546875 24.5625 6.636719 24.722656 6.730469 C 24.769531 6.757812 24.816406 6.785156 24.863281 6.816406 C 25.308594 7.074219 25.75 7.339844 26.191406 7.605469 C 26.5625 7.828125 26.9375 8.046875 27.316406 8.265625 C 27.523438 8.386719 27.730469 8.507812 27.9375 8.628906 C 27.96875 8.648438 27.996094 8.664062 28.023438 8.679688 C 28.082031 8.714844 28.140625 8.75 28.195312 8.78125 C 28.660156 9.054688 29.125 9.324219 29.589844 9.589844 C 30.039062 9.847656 30.484375 10.113281 30.925781 10.378906 C 31.394531 10.664062 31.871094 10.941406 32.34375 11.214844 C 32.484375 11.296875 32.625 11.378906 32.761719 11.460938 C 33.246094 11.742188 33.730469 12.023438 34.21875 12.304688 C 35.058594 12.789062 35.898438 13.277344 36.730469 13.777344 C 37.011719 13.941406 37.292969 14.105469 37.574219 14.265625 C 37.605469 14.285156 37.636719 14.300781 37.664062 14.316406 C 37.808594 14.398438 37.949219 14.480469 38.089844 14.558594 C 38.84375 14.984375 38.84375 14.984375 39 15.140625 C 39.003906 15.230469 39.007812 15.324219 39.007812 15.414062 C 39.007812 15.476562 39.007812 15.535156 39.007812 15.597656 C 39.007812 15.664062 39.007812 15.730469 39.007812 15.800781 C 39.007812 15.871094 39.007812 15.941406 39.007812 16.011719 C 39.007812 16.207031 39.007812 16.40625 39.007812 16.601562 C 39.007812 16.8125 39.007812 17.023438 39.007812 17.234375 C 39.011719 17.746094 39.011719 18.253906 39.011719 18.765625 C 39.011719 19.007812 39.011719 19.246094 39.011719 19.484375 C 39.011719 20.285156 39.011719 21.082031 39.011719 21.878906 C 39.015625 22.085938 39.015625 22.292969 39.015625 22.5 C 39.015625 22.550781 39.015625 22.605469 39.015625 22.65625 C 39.015625 23.492188 39.015625 24.328125 39.015625 25.160156 C 39.019531 26.015625 39.019531 26.875 39.019531 27.730469 C 39.019531 28.210938 39.019531 28.691406 39.023438 29.171875 C 39.023438 29.582031 39.023438 29.992188 39.023438 30.402344 C 39.023438 30.609375 39.023438 30.820312 39.023438 31.027344 C 39.023438 31.21875 39.023438 31.410156 39.023438 31.601562 C 39.023438 31.671875 39.023438 31.742188 39.023438 31.808594 C 39.023438 31.902344 39.023438 32 39.023438 32.09375 C 39.023438 32.144531 39.023438 32.199219 39.023438 32.25 C 38.996094 32.421875 38.929688 32.5 38.8125 32.625 C 38.722656 32.6875 38.722656 32.6875 38.628906 32.734375 C 38.59375 32.753906 38.558594 32.773438 38.523438 32.792969 C 38.484375 32.8125 38.445312 32.832031 38.40625 32.855469 C 38.027344 33.054688 37.664062 33.265625 37.296875 33.488281 C 36.925781 33.710938 36.550781 33.929688 36.171875 34.144531 C 35.773438 34.367188 35.378906 34.601562 34.988281 34.839844 C 34.539062 35.113281 34.089844 35.382812 33.636719 35.648438 C 33.59375 35.671875 33.59375 35.671875 33.550781 35.699219 C 33.410156 35.78125 33.265625 35.863281 33.125 35.945312 C 32.863281 36.097656 32.601562 36.253906 32.339844 36.40625 C 32.28125 36.441406 32.222656 36.472656 32.167969 36.507812 C 31.761719 36.746094 31.359375 36.984375 30.957031 37.21875 C 30.570312 37.449219 30.183594 37.675781 29.792969 37.902344 C 29.421875 38.121094 29.046875 38.34375 28.671875 38.5625 C 27.878906 39.03125 27.082031 39.496094 26.285156 39.957031 C 25.980469 40.128906 25.675781 40.308594 25.375 40.484375 C 25.191406 40.59375 25.007812 40.699219 24.820312 40.804688 C 24.746094 40.847656 24.675781 40.894531 24.601562 40.9375 C 24.515625 40.984375 24.429688 41.035156 24.347656 41.082031 C 24.304688 41.109375 24.257812 41.132812 24.214844 41.160156 C 24.027344 41.226562 23.871094 41.183594 23.691406 41.101562 C 23.652344 41.078125 23.613281 41.058594 23.574219 41.035156 C 23.53125 41.007812 23.484375 40.984375 23.441406 40.957031 C 23.371094 40.917969 23.371094 40.917969 23.300781 40.875 C 23.25 40.847656 23.203125 40.820312 23.152344 40.789062 C 22.875 40.628906 22.597656 40.464844 22.320312 40.300781 C 22.011719 40.113281 21.699219 39.929688 21.386719 39.746094 C 20.933594 39.480469 20.480469 39.214844 20.03125 38.949219 C 19.566406 38.671875 19.097656 38.398438 18.628906 38.128906 C 18.269531 37.921875 17.910156 37.714844 17.554688 37.5 C 17.203125 37.292969 16.847656 37.082031 16.492188 36.875 C 16.046875 36.613281 15.601562 36.351562 15.15625 36.089844 C 14.644531 35.785156 14.128906 35.484375 13.609375 35.1875 C 12.921875 34.789062 12.234375 34.386719 11.550781 33.984375 C 11.265625 33.8125 10.976562 33.648438 10.6875 33.480469 C 10.484375 33.363281 10.28125 33.246094 10.074219 33.125 C 9.988281 33.074219 9.902344 33.027344 9.8125 32.976562 C 9.707031 32.914062 9.601562 32.855469 9.496094 32.792969 C 9.464844 32.777344 9.433594 32.757812 9.402344 32.742188 C 9.222656 32.632812 9.144531 32.523438 9.074219 32.324219 C 9.015625 32.058594 9.027344 31.785156 9.027344 31.515625 C 9.027344 31.445312 9.027344 31.375 9.027344 31.304688 C 9.027344 31.113281 9.027344 30.921875 9.027344 30.726562 C 9.027344 30.519531 9.027344 30.3125 9.027344 30.105469 C 9.027344 29.699219 9.027344 29.292969 9.027344 28.886719 C 9.027344 28.558594 9.027344 28.226562 9.027344 27.898438 C 9.027344 27.851562 9.027344 27.804688 9.027344 27.753906 C 9.027344 27.660156 9.027344 27.5625 9.027344 27.46875 C 9.023438 26.574219 9.023438 25.679688 9.027344 24.785156 C 9.027344 23.964844 9.027344 23.148438 9.023438 22.328125 C 9.023438 21.488281 9.023438 20.648438 9.023438 19.804688 C 9.023438 19.335938 9.023438 18.863281 9.023438 18.390625 C 9.023438 17.988281 9.023438 17.585938 9.023438 17.183594 C 9.023438 16.980469 9.023438 16.777344 9.023438 16.570312 C 9.023438 16.382812 9.023438 16.195312 9.023438 16.007812 C 9.023438 15.9375 9.023438 15.871094 9.023438 15.804688 C 9.023438 15.710938 9.023438 15.621094 9.023438 15.527344 C 9.023438 15.476562 9.023438 15.425781 9.023438 15.371094 C 9.050781 15.199219 9.117188 15.125 9.234375 15 C 9.359375 14.910156 9.359375 14.910156 9.507812 14.828125 C 9.535156 14.8125 9.5625 14.796875 9.585938 14.78125 C 9.675781 14.730469 9.761719 14.679688 9.847656 14.628906 C 9.910156 14.597656 9.972656 14.558594 10.03125 14.523438 C 10.191406 14.433594 10.347656 14.34375 10.503906 14.253906 C 10.640625 14.175781 10.777344 14.097656 10.914062 14.015625 C 11.117188 13.902344 11.316406 13.785156 11.519531 13.667969 C 11.804688 13.503906 12.089844 13.339844 12.375 13.171875 C 13.019531 12.796875 13.664062 12.421875 14.3125 12.050781 C 14.996094 11.65625 15.679688 11.261719 16.359375 10.863281 C 16.59375 10.726562 16.828125 10.589844 17.0625 10.453125 C 17.132812 10.414062 17.132812 10.414062 17.203125 10.371094 C 17.4375 10.234375 17.671875 10.097656 17.910156 9.960938 C 18.40625 9.671875 18.898438 9.378906 19.394531 9.089844 C 19.699219 8.90625 20.007812 8.726562 20.316406 8.550781 C 21.285156 7.984375 22.246094 7.410156 23.207031 6.832031 C 23.296875 6.777344 23.378906 6.726562 23.464844 6.675781 C 23.535156 6.632812 23.605469 6.589844 23.671875 6.546875 C 23.878906 6.414062 24 6.398438 24.234375 6.46875 Z M 23.742188 7.335938 C 23.675781 7.375 23.675781 7.375 23.605469 7.417969 C 23.558594 7.445312 23.511719 7.472656 23.460938 7.503906 C 23.359375 7.5625 23.253906 7.625 23.152344 7.683594 C 23.125 7.699219 23.097656 7.714844 23.070312 7.734375 C 22.789062 7.898438 22.507812 8.0625 22.222656 8.222656 C 22.148438 8.265625 22.148438 8.265625 22.074219 8.3125 C 21.8125 8.460938 21.546875 8.613281 21.285156 8.765625 C 20.660156 9.125 20.660156 9.125 20.039062 9.492188 C 19.523438 9.804688 18.992188 10.105469 18.46875 10.40625 C 17.691406 10.855469 16.914062 11.304688 16.136719 11.761719 C 15.480469 12.148438 14.820312 12.53125 14.160156 12.910156 C 13.835938 13.09375 13.515625 13.277344 13.191406 13.464844 C 12.765625 13.710938 12.339844 13.957031 11.910156 14.199219 C 11.859375 14.230469 11.804688 14.261719 11.75 14.292969 C 11.492188 14.441406 11.234375 14.585938 10.972656 14.734375 C 10.851562 14.804688 10.734375 14.871094 10.609375 14.941406 C 10.554688 14.976562 10.496094 15.007812 10.4375 15.039062 C 10.359375 15.085938 10.277344 15.132812 10.195312 15.175781 C 10.152344 15.203125 10.105469 15.230469 10.058594 15.253906 C 10.019531 15.28125 9.980469 15.304688 9.9375 15.328125 C 9.90625 15.347656 9.871094 15.367188 9.839844 15.386719 C 9.738281 15.464844 9.738281 15.464844 9.726562 15.589844 C 9.726562 15.640625 9.726562 15.691406 9.722656 15.742188 C 9.722656 15.800781 9.722656 15.859375 9.71875 15.917969 C 9.71875 15.984375 9.71875 16.046875 9.71875 16.109375 C 9.71875 16.179688 9.71875 16.246094 9.714844 16.316406 C 9.714844 16.503906 9.710938 16.691406 9.710938 16.878906 C 9.710938 17.039062 9.707031 17.199219 9.707031 17.359375 C 9.699219 17.890625 9.695312 18.417969 9.691406 18.949219 C 9.691406 19.085938 9.6875 19.226562 9.6875 19.363281 C 9.683594 20.21875 9.675781 21.078125 9.675781 21.933594 C 9.671875 22.132812 9.671875 22.332031 9.671875 22.53125 C 9.671875 22.578125 9.671875 22.628906 9.671875 22.679688 C 9.667969 23.480469 9.660156 24.277344 9.648438 25.078125 C 9.640625 25.898438 9.632812 26.71875 9.632812 27.539062 C 9.632812 28 9.628906 28.457031 9.621094 28.917969 C 9.613281 29.3125 9.609375 29.703125 9.613281 30.097656 C 9.613281 30.296875 9.613281 30.496094 9.609375 30.695312 C 9.558594 31.496094 9.558594 31.496094 9.867188 32.195312 C 10.144531 32.421875 10.453125 32.574219 10.785156 32.707031 C 10.964844 32.785156 11.125 32.878906 11.292969 32.984375 C 11.394531 33.042969 11.5 33.105469 11.601562 33.164062 C 12.027344 33.414062 12.453125 33.664062 12.875 33.917969 C 13.316406 34.183594 13.757812 34.441406 14.203125 34.699219 C 14.589844 34.921875 14.976562 35.148438 15.363281 35.371094 C 15.40625 35.398438 15.40625 35.398438 15.449219 35.425781 C 15.855469 35.664062 16.265625 35.902344 16.667969 36.140625 C 17.027344 36.355469 17.382812 36.5625 17.742188 36.773438 C 18.140625 37.007812 18.539062 37.242188 18.9375 37.476562 C 19.75 37.957031 20.5625 38.433594 21.375 38.90625 C 21.769531 39.136719 22.160156 39.363281 22.554688 39.59375 C 22.640625 39.648438 22.730469 39.699219 22.820312 39.75 C 23.058594 39.890625 23.296875 40.03125 23.53125 40.179688 C 23.5625 40.199219 23.597656 40.21875 23.628906 40.242188 C 23.710938 40.292969 23.789062 40.34375 23.871094 40.398438 C 23.996094 40.464844 23.996094 40.464844 24.113281 40.429688 C 24.152344 40.40625 24.191406 40.382812 24.234375 40.359375 C 24.289062 40.332031 24.339844 40.300781 24.398438 40.273438 C 24.457031 40.238281 24.519531 40.203125 24.582031 40.167969 C 24.613281 40.148438 24.648438 40.132812 24.679688 40.113281 C 24.917969 39.976562 25.148438 39.839844 25.382812 39.699219 C 25.695312 39.507812 26.015625 39.324219 26.332031 39.136719 C 26.785156 38.871094 27.238281 38.605469 27.6875 38.339844 C 28.148438 38.066406 28.609375 37.796875 29.074219 37.53125 C 29.496094 37.289062 29.910156 37.039062 30.328125 36.792969 C 30.671875 36.589844 31.011719 36.390625 31.355469 36.191406 C 32.371094 35.597656 33.386719 35 34.402344 34.398438 C 34.621094 34.269531 34.839844 34.140625 35.058594 34.011719 C 35.117188 33.972656 35.117188 33.972656 35.179688 33.9375 C 35.417969 33.796875 35.660156 33.65625 35.898438 33.515625 C 36.492188 33.167969 37.085938 32.816406 37.675781 32.460938 C 37.703125 32.441406 37.734375 32.425781 37.761719 32.40625 C 38.042969 32.253906 38.042969 32.253906 38.296875 32.0625 C 38.300781 31.976562 38.304688 31.886719 38.304688 31.800781 C 38.308594 31.742188 38.308594 31.6875 38.308594 31.625 C 38.308594 31.5625 38.3125 31.496094 38.3125 31.433594 C 38.3125 31.363281 38.3125 31.296875 38.316406 31.230469 C 38.316406 31.042969 38.320312 30.855469 38.324219 30.667969 C 38.324219 30.546875 38.324219 30.429688 38.328125 30.308594 C 38.351562 28.746094 38.363281 27.183594 38.378906 25.621094 C 38.378906 25.421875 38.378906 25.222656 38.382812 25.027344 C 38.382812 24.976562 38.382812 24.925781 38.382812 24.875 C 38.390625 24.078125 38.402344 23.28125 38.414062 22.484375 C 38.425781 21.664062 38.433594 20.847656 38.4375 20.027344 C 38.441406 19.523438 38.449219 19.015625 38.457031 18.511719 C 38.464844 18.164062 38.46875 17.820312 38.464844 17.472656 C 38.464844 17.273438 38.46875 17.074219 38.476562 16.875 C 38.527344 16.082031 38.527344 16.082031 38.234375 15.390625 C 37.96875 15.171875 37.675781 15.035156 37.355469 14.914062 C 37.160156 14.835938 36.984375 14.734375 36.804688 14.628906 C 36.738281 14.59375 36.671875 14.554688 36.605469 14.519531 C 36.289062 14.34375 35.976562 14.15625 35.667969 13.972656 C 35.277344 13.738281 34.882812 13.511719 34.488281 13.285156 C 34.183594 13.113281 33.878906 12.9375 33.578125 12.757812 C 33.03125 12.441406 32.484375 12.125 31.9375 11.808594 C 31.78125 11.71875 31.625 11.628906 31.472656 11.539062 C 31.367188 11.480469 31.265625 11.421875 31.164062 11.363281 C 31.113281 11.332031 31.0625 11.300781 31.007812 11.273438 C 30.726562 11.109375 30.445312 10.949219 30.160156 10.789062 C 29.683594 10.523438 29.21875 10.246094 28.753906 9.960938 C 28.207031 9.628906 27.65625 9.308594 27.097656 8.992188 C 26.863281 8.855469 26.628906 8.71875 26.394531 8.582031 C 25.921875 8.304688 25.445312 8.03125 24.964844 7.757812 C 24.6875 7.597656 24.410156 7.4375 24.136719 7.265625 C 23.96875 7.175781 23.894531 7.246094 23.742188 7.335938 Z M 23.742188 7.335938 "/>
<path style=" stroke:none;fill-rule:nonzero;fill:rgb(98.823529%,98.823529%,98.823529%);fill-opacity:1;" d="M 24.234375 11.8125 C 24.402344 11.992188 24.507812 12.199219 24.617188 12.417969 C 24.636719 12.453125 24.65625 12.488281 24.675781 12.527344 C 24.730469 12.640625 24.792969 12.757812 24.847656 12.871094 C 24.910156 12.992188 24.972656 13.113281 25.03125 13.234375 C 25.074219 13.3125 25.113281 13.386719 25.152344 13.46875 C 25.285156 13.726562 25.417969 13.984375 25.550781 14.238281 C 25.78125 14.667969 26.003906 15.101562 26.226562 15.535156 C 26.4375 15.941406 26.644531 16.347656 26.855469 16.753906 C 27.097656 17.210938 27.332031 17.667969 27.566406 18.128906 C 27.800781 18.585938 28.035156 19.039062 28.277344 19.492188 C 28.464844 19.84375 28.644531 20.199219 28.828125 20.554688 C 29.234375 21.34375 29.648438 22.132812 30.070312 22.914062 C 30.480469 23.675781 30.878906 24.445312 31.277344 25.210938 C 31.449219 25.546875 31.621094 25.875 31.792969 26.207031 C 31.996094 26.597656 32.195312 26.984375 32.390625 27.375 C 32.527344 27.648438 32.667969 27.921875 32.808594 28.191406 C 32.832031 28.238281 32.859375 28.285156 32.882812 28.332031 C 32.992188 28.542969 33.105469 28.757812 33.21875 28.96875 C 33.238281 29.003906 33.257812 29.039062 33.277344 29.074219 C 33.3125 29.140625 33.347656 29.203125 33.382812 29.269531 C 33.664062 29.796875 33.664062 29.796875 33.644531 30.042969 C 33.609375 30.140625 33.609375 30.140625 33.5625 30.1875 C 33.21875 30.183594 32.964844 30 32.675781 29.832031 C 32.625 29.796875 32.570312 29.765625 32.515625 29.734375 C 32.347656 29.636719 32.179688 29.535156 32.015625 29.4375 C 31.964844 29.410156 31.917969 29.378906 31.867188 29.347656 C 31.675781 29.234375 31.484375 29.121094 31.292969 29.003906 C 30.917969 28.777344 30.542969 28.558594 30.164062 28.335938 C 29.691406 28.058594 29.222656 27.78125 28.757812 27.5 C 28.378906 27.273438 28 27.050781 27.617188 26.828125 C 27.199219 26.582031 26.785156 26.335938 26.367188 26.085938 C 26.148438 25.953125 25.925781 25.820312 25.703125 25.6875 C 25.675781 25.671875 25.648438 25.65625 25.617188 25.640625 C 25.480469 25.558594 25.34375 25.476562 25.203125 25.394531 C 24.976562 25.257812 24.746094 25.125 24.519531 24.980469 C 24.488281 24.960938 24.457031 24.941406 24.421875 24.921875 C 24.339844 24.867188 24.261719 24.816406 24.179688 24.765625 C 24.019531 24.691406 23.976562 24.703125 23.8125 24.75 C 23.722656 24.796875 23.632812 24.84375 23.546875 24.894531 C 23.492188 24.925781 23.441406 24.953125 23.386719 24.984375 C 23.332031 25.019531 23.273438 25.050781 23.21875 25.082031 C 23.160156 25.117188 23.101562 25.152344 23.039062 25.1875 C 22.921875 25.257812 22.796875 25.328125 22.675781 25.398438 C 22.515625 25.492188 22.351562 25.585938 22.1875 25.679688 C 21.617188 26.007812 21.054688 26.335938 20.488281 26.671875 C 20.078125 26.917969 19.660156 27.160156 19.246094 27.398438 C 18.90625 27.59375 18.570312 27.789062 18.234375 27.984375 C 17.84375 28.210938 17.453125 28.4375 17.0625 28.664062 C 16.664062 28.894531 16.261719 29.125 15.863281 29.359375 C 15.796875 29.398438 15.796875 29.398438 15.726562 29.441406 C 15.511719 29.5625 15.296875 29.691406 15.085938 29.816406 C 15.03125 29.847656 15.03125 29.847656 14.972656 29.882812 C 14.90625 29.921875 14.835938 29.960938 14.769531 30.003906 C 14.644531 30.078125 14.53125 30.140625 14.390625 30.1875 C 14.359375 30.171875 14.328125 30.15625 14.296875 30.140625 C 14.324219 29.960938 14.378906 29.820312 14.464844 29.660156 C 14.488281 29.613281 14.515625 29.5625 14.539062 29.515625 C 14.570312 29.460938 14.597656 29.410156 14.625 29.355469 C 14.667969 29.269531 14.714844 29.1875 14.757812 29.101562 C 14.789062 29.042969 14.820312 28.980469 14.851562 28.921875 C 14.96875 28.699219 15.085938 28.472656 15.199219 28.25 C 15.21875 28.21875 15.234375 28.183594 15.25 28.148438 C 15.269531 28.117188 15.285156 28.085938 15.304688 28.050781 C 15.574219 27.519531 15.851562 26.988281 16.140625 26.464844 C 16.363281 26.0625 16.570312 25.652344 16.78125 25.242188 C 17.035156 24.75 17.289062 24.261719 17.554688 23.777344 C 17.757812 23.40625 17.953125 23.03125 18.144531 22.65625 C 18.164062 22.625 18.179688 22.59375 18.195312 22.558594 C 18.257812 22.433594 18.324219 22.3125 18.386719 22.1875 C 18.632812 21.707031 18.886719 21.226562 19.144531 20.75 C 19.203125 20.640625 19.261719 20.53125 19.320312 20.417969 C 19.335938 20.390625 19.351562 20.363281 19.367188 20.335938 C 19.613281 19.875 19.851562 19.414062 20.09375 18.949219 C 20.304688 18.535156 20.527344 18.121094 20.753906 17.714844 C 20.914062 17.421875 21.0625 17.125 21.210938 16.828125 C 21.375 16.5 21.542969 16.171875 21.722656 15.851562 C 22.046875 15.265625 22.347656 14.667969 22.652344 14.070312 C 22.855469 13.671875 23.058594 13.273438 23.265625 12.878906 C 23.285156 12.84375 23.304688 12.808594 23.324219 12.769531 C 23.882812 11.714844 23.882812 11.714844 24.234375 11.8125 Z M 24.046875 12.75 C 24.023438 12.796875 24 12.847656 23.972656 12.898438 C 23.167969 14.527344 23.167969 14.527344 22.804688 15.175781 C 22.59375 15.5625 22.390625 15.953125 22.191406 16.34375 C 22.171875 16.378906 22.15625 16.414062 22.136719 16.449219 C 22.070312 16.578125 22 16.710938 21.933594 16.84375 C 21.734375 17.230469 21.53125 17.617188 21.328125 18 C 21.261719 18.125 21.195312 18.25 21.128906 18.375 C 21.015625 18.585938 20.90625 18.796875 20.792969 19.007812 C 20.511719 19.539062 20.511719 19.539062 20.230469 20.070312 C 20.214844 20.105469 20.195312 20.136719 20.179688 20.171875 C 20.078125 20.363281 19.980469 20.550781 19.882812 20.742188 C 19.652344 21.1875 19.417969 21.628906 19.175781 22.066406 C 18.9375 22.503906 18.707031 22.945312 18.476562 23.390625 C 18.3125 23.710938 18.140625 24.03125 17.96875 24.347656 C 17.710938 24.8125 17.46875 25.285156 17.226562 25.757812 C 16.78125 26.628906 16.320312 27.492188 15.828125 28.335938 C 15.792969 28.394531 15.792969 28.394531 15.757812 28.453125 C 15.738281 28.488281 15.71875 28.519531 15.699219 28.554688 C 15.648438 28.640625 15.648438 28.640625 15.65625 28.734375 C 15.839844 28.667969 15.996094 28.582031 16.160156 28.480469 C 16.214844 28.449219 16.265625 28.414062 16.320312 28.382812 C 16.347656 28.363281 16.375 28.347656 16.40625 28.332031 C 16.554688 28.238281 16.703125 28.148438 16.851562 28.058594 C 16.878906 28.039062 16.910156 28.019531 16.941406 28.003906 C 17.210938 27.839844 17.480469 27.679688 17.753906 27.519531 C 18.191406 27.265625 18.628906 27.011719 19.066406 26.75 C 19.097656 26.730469 19.128906 26.714844 19.164062 26.695312 C 19.636719 26.410156 20.109375 26.125 20.582031 25.835938 C 21.03125 25.5625 21.484375 25.296875 21.941406 25.035156 C 22.210938 24.882812 22.480469 24.726562 22.746094 24.566406 C 22.800781 24.535156 22.851562 24.5 22.90625 24.46875 C 22.988281 24.421875 23.066406 24.371094 23.148438 24.324219 C 23.234375 24.269531 23.320312 24.214844 23.410156 24.164062 C 23.457031 24.132812 23.507812 24.101562 23.558594 24.070312 C 23.753906 23.984375 23.925781 23.941406 24.140625 23.953125 C 24.265625 24 24.355469 24.046875 24.46875 24.117188 C 24.5 24.136719 24.53125 24.15625 24.5625 24.175781 C 24.632812 24.214844 24.703125 24.257812 24.773438 24.304688 C 24.898438 24.378906 25.027344 24.457031 25.152344 24.53125 C 25.953125 25.007812 26.746094 25.492188 27.539062 25.972656 C 27.699219 26.074219 27.863281 26.171875 28.027344 26.269531 C 28.050781 26.285156 28.078125 26.304688 28.105469 26.320312 C 28.535156 26.578125 28.960938 26.835938 29.390625 27.09375 C 30.394531 27.695312 31.398438 28.304688 32.390625 28.921875 C 32.40625 28.890625 32.421875 28.859375 32.4375 28.828125 C 32.378906 28.691406 32.378906 28.691406 32.292969 28.535156 C 32.277344 28.507812 32.261719 28.476562 32.246094 28.449219 C 32.191406 28.347656 32.140625 28.25 32.085938 28.152344 C 32.050781 28.085938 32.011719 28.019531 31.976562 27.949219 C 31.902344 27.808594 31.824219 27.671875 31.75 27.53125 C 31.59375 27.238281 31.433594 26.945312 31.277344 26.652344 C 31.25 26.597656 31.21875 26.542969 31.191406 26.488281 C 30.945312 26.03125 30.707031 25.574219 30.46875 25.113281 C 30.324219 24.835938 30.179688 24.5625 30.035156 24.285156 C 29.929688 24.089844 29.828125 23.890625 29.726562 23.695312 C 29.496094 23.257812 29.269531 22.820312 29.03125 22.386719 C 28.699219 21.789062 28.386719 21.175781 28.074219 20.5625 C 27.945312 20.3125 27.816406 20.0625 27.683594 19.808594 C 27.664062 19.777344 27.648438 19.742188 27.628906 19.707031 C 27.574219 19.605469 27.523438 19.507812 27.46875 19.40625 C 27.179688 18.863281 26.898438 18.316406 26.625 17.765625 C 26.550781 17.613281 26.472656 17.460938 26.394531 17.304688 C 26.378906 17.273438 26.363281 17.238281 26.34375 17.203125 C 26.253906 17.015625 26.160156 16.832031 26.0625 16.652344 C 25.691406 15.957031 25.339844 15.25 24.988281 14.546875 C 24.90625 14.378906 24.824219 14.210938 24.742188 14.046875 C 24.59375 13.753906 24.449219 13.460938 24.304688 13.167969 C 24.234375 13.03125 24.164062 12.890625 24.09375 12.75 C 24.078125 12.75 24.0625 12.75 24.046875 12.75 Z M 24.046875 12.75 "/>
<path style=" stroke:none;fill-rule:nonzero;fill:rgb(81.568629%,81.960785%,81.568629%);fill-opacity:1;" d="M 14.34375 29.90625 C 14.574219 29.988281 14.574219 29.988281 14.625 30.09375 C 14.511719 30.144531 14.511719 30.144531 14.390625 30.1875 C 14.359375 30.171875 14.328125 30.15625 14.296875 30.140625 C 14.3125 30.0625 14.328125 29.984375 14.34375 29.90625 Z M 14.34375 29.90625 "/>
</g>
</svg>
