<?xml version="1.0" encoding="UTF-8"?>
<svg xmlns="http://www.w3.org/2000/svg" xmlns:xlink="http://www.w3.org/1999/xlink" width="48px" height="48px" viewBox="0 0 48 48" version="1.1">
<g id="surface1">
<path style=" stroke:none;fill-rule:nonzero;fill:rgb(0%,0%,0%);fill-opacity:1;" d="M 0 24 L 0 48 L 48 48 L 48 0 L 0 0 Z M 24.910156 9.128906 C 24.898438 9.160156 24.335938 9.605469 23.660156 10.109375 C 22.433594 11.042969 21.917969 11.425781 18.628906 13.914062 C 16.964844 15.171875 15.332031 16.40625 12.015625 18.902344 C 11.253906 19.472656 10.621094 19.945312 10.601562 19.945312 C 10.585938 19.945312 10.574219 19.441406 10.574219 18.820312 L 10.574219 17.703125 L 11.878906 16.730469 C 13.085938 15.820312 14.316406 14.894531 19.28125 11.152344 C 20.324219 10.367188 22.011719 9.097656 23.035156 8.324219 L 24.902344 6.921875 L 24.921875 7.996094 C 24.925781 8.582031 24.921875 9.097656 24.910156 9.128906 Z M 26.886719 7.660156 C 28.152344 8.625 32.28125 11.738281 36.4375 14.871094 C 39.320312 17.035156 39.171875 16.921875 39.0625 17.003906 C 39.019531 17.042969 38.707031 17.28125 38.371094 17.546875 C 38.039062 17.8125 37.738281 18.027344 37.703125 18.027344 C 37.671875 18.027344 36.308594 17.023438 34.679688 15.792969 C 33.046875 14.5625 31.59375 13.472656 31.453125 13.371094 C 31.308594 13.265625 30.664062 12.777344 30.023438 12.289062 C 29.375 11.804688 28.1875 10.902344 27.371094 10.285156 L 25.890625 9.167969 L 25.875 8.066406 C 25.867188 7.371094 25.878906 6.957031 25.914062 6.957031 C 25.945312 6.957031 26.382812 7.277344 26.886719 7.660156 Z M 24.929688 12.070312 L 24.929688 13.179688 L 23.6875 14.113281 C 22.996094 14.628906 22.082031 15.324219 21.644531 15.65625 C 21.207031 15.984375 19.378906 17.363281 17.589844 18.710938 C 15.796875 20.066406 14.066406 21.375 13.738281 21.628906 L 13.152344 22.082031 L 12.410156 21.527344 C 12.003906 21.222656 11.671875 20.953125 11.671875 20.9375 C 11.675781 20.921875 12.078125 20.601562 12.5625 20.242188 C 13.417969 19.601562 15.097656 18.335938 17.699219 16.367188 C 19.417969 15.0625 22.269531 12.910156 23.671875 11.851562 C 24.316406 11.363281 24.867188 10.964844 24.894531 10.957031 C 24.914062 10.957031 24.929688 11.457031 24.929688 12.070312 Z M 27.660156 12.261719 C 28.613281 12.980469 30.027344 14.042969 30.792969 14.628906 C 31.5625 15.210938 33.160156 16.410156 34.34375 17.296875 C 35.523438 18.1875 36.492188 18.9375 36.492188 18.957031 C 36.492188 19.007812 35.234375 19.984375 35.105469 20.03125 C 35.058594 20.050781 34.683594 19.804688 34.175781 19.414062 C 33.710938 19.058594 33.222656 18.691406 33.089844 18.589844 C 32.445312 18.121094 28.453125 15.125 26.363281 13.535156 L 25.890625 13.179688 L 25.875 12.066406 C 25.867188 11.457031 25.875 10.957031 25.894531 10.957031 C 25.914062 10.957031 26.707031 11.546875 27.660156 12.261719 Z M 24.929688 16.246094 L 24.929688 17.363281 L 23.605469 18.371094 C 22.871094 18.925781 21.617188 19.875 20.8125 20.480469 C 17.472656 22.996094 16.398438 23.8125 16.148438 24.011719 L 15.886719 24.21875 L 15.574219 23.988281 C 14.980469 23.554688 14.410156 23.105469 14.410156 23.074219 C 14.410156 23.058594 14.601562 22.902344 14.839844 22.734375 C 15.070312 22.5625 15.878906 21.957031 16.628906 21.386719 C 17.386719 20.816406 18.765625 19.773438 19.699219 19.070312 C 20.636719 18.363281 21.851562 17.441406 22.410156 17.019531 C 22.96875 16.597656 23.671875 16.070312 23.972656 15.847656 C 24.273438 15.621094 24.609375 15.371094 24.710938 15.28125 C 24.816406 15.199219 24.910156 15.128906 24.921875 15.128906 C 24.925781 15.125 24.929688 15.628906 24.929688 16.246094 Z M 26.792969 15.820312 C 27.234375 16.148438 28.976562 17.457031 30.675781 18.730469 C 32.367188 20 33.753906 21.0625 33.753906 21.085938 C 33.746094 21.117188 32.691406 21.972656 32.417969 22.160156 C 32.339844 22.214844 32.394531 22.253906 28.234375 19.132812 L 25.863281 17.359375 L 25.863281 16.261719 C 25.863281 15.410156 25.878906 15.171875 25.933594 15.195312 C 25.96875 15.207031 26.355469 15.492188 26.792969 15.820312 Z M 40.273438 18.976562 L 40.273438 20.085938 L 39.6875 20.535156 C 38.941406 21.101562 36.785156 22.75 35.917969 23.410156 C 35.554688 23.6875 34.433594 24.542969 33.425781 25.316406 C 32.417969 26.085938 31.195312 27.023438 30.710938 27.390625 C 30.230469 27.753906 29.390625 28.394531 28.847656 28.8125 C 28.3125 29.222656 27.425781 29.902344 26.875 30.3125 L 25.890625 31.0625 L 25.875 29.984375 C 25.867188 29.390625 25.867188 28.882812 25.886719 28.84375 C 25.894531 28.8125 26.382812 28.421875 26.96875 27.984375 C 28.113281 27.113281 30.148438 25.5625 31.070312 24.855469 C 31.386719 24.613281 32.078125 24.082031 32.601562 23.683594 C 33.128906 23.277344 34.363281 22.335938 35.34375 21.582031 C 39.441406 18.445312 40.191406 17.867188 40.234375 17.863281 C 40.257812 17.863281 40.273438 18.363281 40.273438 18.976562 Z M 24.929688 20.367188 L 24.925781 21.507812 L 24.558594 21.78125 C 24.363281 21.929688 23.527344 22.554688 22.71875 23.160156 C 21.90625 23.773438 21.214844 24.273438 21.1875 24.273438 C 21.105469 24.273438 19.71875 23.222656 19.738281 23.171875 C 19.746094 23.152344 19.914062 23.007812 20.109375 22.867188 C 20.308594 22.71875 21.035156 22.167969 21.726562 21.644531 C 22.421875 21.117188 23.417969 20.363281 23.945312 19.960938 C 24.472656 19.5625 24.910156 19.234375 24.921875 19.234375 C 24.925781 19.234375 24.929688 19.742188 24.929688 20.367188 Z M 26.34375 19.578125 C 26.546875 19.738281 27.609375 20.542969 28.710938 21.371094 C 30.9375 23.035156 31.070312 23.140625 31.070312 23.179688 C 31.070312 23.210938 29.941406 24.085938 29.738281 24.214844 C 29.617188 24.285156 29.519531 24.21875 27.753906 22.898438 L 25.890625 21.507812 L 25.875 20.394531 C 25.863281 19.632812 25.878906 19.289062 25.917969 19.289062 C 25.949219 19.289062 26.140625 19.417969 26.34375 19.578125 Z M 11.902344 22.859375 C 12.363281 23.210938 13.0625 23.746094 13.453125 24.050781 C 13.847656 24.355469 14.734375 25.03125 15.425781 25.554688 C 16.597656 26.445312 18.984375 28.269531 19.757812 28.867188 C 20.109375 29.132812 21.738281 30.378906 23.636719 31.832031 C 24.242188 32.289062 24.785156 32.710938 24.839844 32.761719 C 24.925781 32.84375 24.929688 32.957031 24.921875 33.941406 L 24.902344 35.023438 L 23.78125 34.167969 C 23.160156 33.703125 22.363281 33.089844 22 32.816406 C 21.0625 32.097656 19.335938 30.777344 18.4375 30.097656 C 16.761719 28.820312 16.339844 28.5 15.902344 28.160156 C 15.648438 27.96875 14.832031 27.347656 14.09375 26.785156 C 13.347656 26.21875 12.253906 25.378906 11.660156 24.921875 L 10.574219 24.082031 L 10.574219 21.863281 L 10.816406 22.039062 C 10.953125 22.136719 11.4375 22.507812 11.902344 22.859375 Z M 40.273438 22.96875 L 40.269531 24.082031 L 40.039062 24.253906 C 39.757812 24.460938 38.855469 25.15625 37.890625 25.894531 C 37.5 26.195312 36.722656 26.789062 36.164062 27.210938 C 35.605469 27.632812 34.609375 28.394531 33.945312 28.902344 C 33.28125 29.414062 32.382812 30.097656 31.945312 30.433594 C 31.507812 30.761719 30.738281 31.347656 30.242188 31.730469 C 29.738281 32.113281 28.894531 32.761719 28.367188 33.160156 C 27.839844 33.5625 27.0625 34.160156 26.636719 34.480469 L 25.863281 35.074219 L 25.863281 32.828125 L 26.308594 32.480469 C 26.554688 32.289062 27.25 31.757812 27.851562 31.304688 C 28.453125 30.84375 29.492188 30.050781 30.160156 29.539062 C 31.316406 28.648438 32.34375 27.863281 36.355469 24.792969 C 39.644531 22.285156 40.191406 21.867188 40.234375 21.867188 C 40.257812 21.863281 40.273438 22.363281 40.273438 22.96875 Z M 19.4375 24.648438 C 21.410156 26.148438 23.058594 27.398438 23.957031 28.070312 L 24.925781 28.792969 L 24.925781 29.902344 C 24.929688 30.515625 24.921875 31.015625 24.902344 31.015625 C 24.875 31.015625 24.179688 30.492188 21.621094 28.546875 C 21.207031 28.230469 20.121094 27.410156 19.210938 26.71875 C 18.308594 26.03125 17.453125 25.390625 17.320312 25.292969 L 17.085938 25.125 L 17.265625 24.96875 C 17.863281 24.476562 18.503906 24.011719 18.558594 24.015625 C 18.597656 24.023438 18.992188 24.308594 19.4375 24.648438 Z M 11.808594 26.738281 C 12.261719 27.089844 13.132812 27.757812 13.742188 28.226562 C 14.355469 28.691406 15.269531 29.386719 15.769531 29.769531 C 16.273438 30.152344 16.84375 30.589844 17.042969 30.738281 C 17.238281 30.886719 17.902344 31.398438 18.519531 31.867188 C 19.140625 32.34375 20.050781 33.042969 20.546875 33.417969 C 23.144531 35.398438 24.542969 36.464844 24.730469 36.621094 L 24.9375 36.792969 L 24.921875 37.886719 L 24.902344 38.96875 L 23.617188 37.996094 C 22.910156 37.453125 22.054688 36.804688 21.71875 36.546875 C 18.929688 34.421875 18.246094 33.902344 17.289062 33.167969 C 16.683594 32.707031 15.402344 31.726562 14.4375 30.984375 C 13.472656 30.253906 12.207031 29.289062 11.632812 28.84375 L 10.574219 28.050781 L 10.574219 25.796875 L 10.785156 25.949219 C 10.894531 26.03125 11.359375 26.390625 11.808594 26.738281 Z M 40.269531 26.941406 L 40.273438 28.027344 L 40.097656 28.167969 C 40 28.246094 39.363281 28.730469 38.683594 29.242188 C 38.003906 29.753906 36.527344 30.882812 35.398438 31.746094 C 34.269531 32.609375 32.542969 33.921875 31.566406 34.675781 C 30.585938 35.417969 29.402344 36.324219 28.9375 36.683594 C 26.902344 38.246094 25.957031 38.957031 25.914062 38.957031 C 25.886719 38.957031 25.863281 38.472656 25.863281 37.867188 L 25.863281 36.785156 L 26.675781 36.160156 C 28 35.140625 29.507812 33.988281 30.394531 33.316406 C 30.847656 32.96875 31.710938 32.308594 32.3125 31.851562 C 33.839844 30.675781 35.492188 29.417969 36.957031 28.308594 C 37.65625 27.78125 38.652344 27.015625 39.179688 26.609375 C 39.703125 26.203125 40.164062 25.867188 40.203125 25.863281 C 40.253906 25.863281 40.269531 26.148438 40.269531 26.941406 Z M 12.515625 31.222656 C 13.332031 31.847656 14.625 32.839844 15.402344 33.425781 C 17.277344 34.847656 19.222656 36.328125 19.726562 36.722656 C 20.640625 37.429688 22.167969 38.597656 23.152344 39.34375 C 23.726562 39.773438 24.355469 40.261719 24.5625 40.421875 L 24.929688 40.71875 L 24.929688 41.820312 C 24.929688 42.691406 24.914062 42.902344 24.867188 42.867188 C 24.828125 42.839844 24.363281 42.488281 23.835938 42.09375 C 23.308594 41.699219 22.582031 41.144531 22.21875 40.871094 C 21.859375 40.589844 21.167969 40.066406 20.683594 39.699219 C 20.203125 39.332031 19.683594 38.9375 19.527344 38.816406 C 18.515625 38.03125 16.941406 36.839844 16.84375 36.765625 C 16.777344 36.722656 16.574219 36.570312 16.398438 36.433594 C 15.875 36.023438 14.5 34.976562 13.425781 34.164062 C 12.867188 33.742188 12.382812 33.375 12.351562 33.34375 C 12.316406 33.316406 11.902344 32.992188 11.4375 32.628906 L 10.574219 31.972656 L 10.574219 29.742188 L 10.8125 29.914062 C 10.9375 30.003906 11.703125 30.597656 12.515625 31.222656 Z M 40.273438 30.859375 L 40.269531 31.972656 L 39.332031 32.683594 C 36.855469 34.570312 33.304688 37.277344 30.355469 39.535156 C 29.609375 40.105469 28.507812 40.941406 27.914062 41.398438 C 27.316406 41.847656 26.628906 42.371094 26.390625 42.5625 C 26.152344 42.75 25.933594 42.902344 25.90625 42.902344 C 25.886719 42.902344 25.863281 42.410156 25.863281 41.8125 L 25.863281 40.71875 L 26.589844 40.152344 C 27.511719 39.441406 29.886719 37.628906 32.300781 35.792969 C 32.902344 35.335938 33.859375 34.609375 34.417969 34.179688 C 35.445312 33.390625 36.472656 32.613281 38.460938 31.097656 C 39.050781 30.640625 39.6875 30.160156 39.867188 30.015625 C 40.042969 29.878906 40.207031 29.757812 40.234375 29.757812 C 40.257812 29.753906 40.273438 30.253906 40.273438 30.859375 Z M 40.273438 30.859375 "/>
</g>
</svg>
